<?xml version="1.0" ?><!DOCTYPE svg  PUBLIC '-//W3C//DTD SVG 1.1//EN'  'http://www.w3.org/Graphics/SVG/1.1/DTD/svg11.dtd'><svg height="8.4666mm" style="shape-rendering:geometricPrecision; text-rendering:geometricPrecision; image-rendering:optimizeQuality; fill-rule:evenodd; clip-rule:evenodd" version="1.1" viewBox="0 0 847 847" width="8.4666mm" xml:space="preserve" xmlns="http://www.w3.org/2000/svg" xmlns:xlink="http://www.w3.org/1999/xlink"><defs><style type="text/css">
   <![CDATA[
    .fil2 {fill:#CC9D28;fill-rule:nonzero}
    .fil0 {fill:#FAD00D;fill-rule:nonzero}
    .fil1 {fill:#FFFAC7;fill-rule:nonzero}
   ]]>
  </style></defs><g id="Layer_x0020_1"><g id="_1122819264"><path class="fil0" d="M307 349c-4,6 -29,9 -36,11 -18,4 -47,9 -65,2 -19,-8 -7,-25 7,-29 0,-1 1,-1 1,-1 1,0 1,0 2,0 16,-3 32,-4 48,-4 11,0 30,-4 40,3 6,4 6,12 3,18zm388 11c-9,-3 -19,-5 -28,-7 -42,-10 -84,-18 -126,-26 -11,-2 -27,-2 -37,-9 -9,-6 -13,-24 -18,-33 -19,-43 -39,-86 -57,-130 -12,-29 -34,17 -39,26 -7,14 -15,27 -22,41 -13,26 -22,57 -37,81 -9,14 -41,10 -55,12 -25,2 -49,5 -73,9 -14,2 -27,3 -40,5 -5,1 -10,1 -15,2 -17,5 -6,16 -1,22 14,17 28,35 43,52 16,19 31,37 48,55 8,8 25,18 25,30 1,8 -5,19 -8,26 -6,17 -13,34 -19,50 -9,23 -18,46 -26,69 -4,10 -7,21 -11,32 -1,2 -12,32 -2,31 37,-17 75,-33 112,-49 20,-8 39,-17 58,-25 10,-4 24,-13 35,-13 13,1 28,12 39,18 19,9 37,19 56,28 20,9 41,19 62,27 9,4 19,8 28,12 11,4 27,10 20,-9 -19,-53 -26,-108 -44,-160 -4,-14 -11,-25 -6,-39 2,-8 13,-13 19,-18 20,-13 39,-28 57,-42 20,-16 40,-31 59,-47 8,-7 19,-17 3,-21z"/><path class="fil1" d="M289 340c-8,0 -17,0 -26,1 -15,0 -31,0 -46,3 -19,6 2,8 6,8 6,0 12,0 18,-1 11,0 23,-2 34,-5 2,-1 26,-6 14,-6z"/><path class="fil0" d="M242 491c0,-1 1,-1 1,-1 0,-2 -1,-1 -1,1z"/><path class="fil2" d="M242 491c0,-2 1,-3 1,-1 0,0 -1,0 -1,1zm450 -110c-19,16 -39,31 -59,47 -18,14 -37,29 -57,42 -6,5 -17,10 -19,18 -5,14 2,25 6,39 18,52 25,107 44,160 7,19 -9,13 -20,9 -9,-4 -19,-8 -28,-12 -21,-8 -42,-18 -62,-27 -19,-9 -37,-19 -56,-28 -11,-6 -26,-17 -39,-18 -11,0 -25,9 -35,13 -19,8 -38,17 -58,25 -37,16 -75,32 -112,49 -10,1 1,-29 2,-31 4,-11 7,-22 11,-32 8,-23 17,-46 26,-69 6,-16 13,-33 19,-50 3,-7 9,-18 8,-26 0,-12 -17,-22 -25,-30 -17,-18 -32,-36 -48,-55 -15,-17 -29,-35 -43,-52 -5,-6 -16,-17 1,-22 5,-1 10,-1 15,-2 13,-2 26,-3 40,-5 24,-4 48,-7 73,-9 14,-2 46,2 55,-12 15,-24 24,-55 37,-81 7,-14 15,-27 22,-41 5,-9 27,-55 39,-26 18,44 38,87 57,130 5,9 9,27 18,33 10,7 26,7 37,9 42,8 84,16 126,26 9,2 19,4 28,7 16,4 5,14 -3,21zm6 -42c-22,-6 -45,-11 -67,-15 -37,-8 -74,-15 -111,-22 -8,-2 -14,-24 -17,-31 -10,-22 -20,-44 -30,-66 -9,-21 -19,-43 -27,-64 -7,-17 -27,-21 -42,-15 -9,4 -15,16 -19,24 -8,13 -16,26 -23,40 -15,28 -29,56 -41,85 -7,16 -13,16 -28,17 -11,1 -22,2 -33,4 -26,3 -53,6 -79,10 -18,2 -40,1 -54,14 -13,12 -8,31 1,43 30,36 59,73 91,107 6,7 12,13 19,19 1,1 2,2 4,4 -4,12 -9,23 -13,35 -16,38 -31,77 -44,116 -6,17 -14,35 -15,53 -1,17 18,24 32,21 0,0 1,0 2,-1 0,0 0,0 0,0 38,-17 77,-33 115,-50 18,-7 35,-15 53,-23 13,-5 25,-14 38,-8 35,18 70,36 106,52 20,9 40,18 60,26 17,6 33,15 50,3 17,-13 -2,-43 -6,-57 -9,-27 -15,-56 -21,-83 -4,-14 -7,-27 -11,-41 -2,-6 -16,-35 -10,-41 6,-7 17,-13 25,-19 12,-8 23,-17 34,-25 19,-15 38,-30 57,-45 13,-11 32,-21 34,-40 1,-18 -17,-23 -30,-27z"/><path class="fil2" d="M275 346c-11,3 -23,5 -34,5 -6,1 -12,1 -18,1 -4,0 -25,-2 -6,-8 15,-3 31,-3 46,-3 9,-1 18,-1 26,-1 12,0 -12,5 -14,6zm-11 -18c-16,0 -32,1 -48,4 -1,0 -1,0 -2,0 0,0 -1,0 -1,1 -14,4 -26,21 -7,29 18,7 47,2 65,-2 7,-2 32,-5 36,-11 3,-6 3,-14 -3,-18 -10,-7 -29,-3 -40,-3z"/></g></g></svg>